<?xml version="1.0" encoding="utf-8"?>
<!-- Generator: Adobe Illustrator 24.2.1, SVG Export Plug-In . SVG Version: 6.00 Build 0)  -->
<svg version="1.1" id="Calque_1" xmlns="http://www.w3.org/2000/svg" xmlns:xlink="http://www.w3.org/1999/xlink" x="0px" y="0px"
	 viewBox="0 0 269 390" style="enable-background:new 0 0 269 390;" xml:space="preserve">
<style type="text/css">
	.st0{fill:#FF2A35;}
</style>
<g>
	<path class="st0" d="M4.8,367.9c-0.3,0-0.5-0.2-0.5-0.5v-39.6c0-0.3,0.2-0.5,0.5-0.5h259.9c0.3,0,0.5,0.2,0.5,0.5v39.6
		c0,0.3-0.2,0.5-0.5,0.5H4.8z"/>
	<path class="st0" d="M264.6,327.8v39.6H4.8v-39.6H264.6 M264.6,326.8H4.8c-0.6,0-1,0.4-1,1v39.6c0,0.6,0.4,1,1,1h259.9
		c0.6,0,1-0.4,1-1v-39.6C265.6,327.3,265.2,326.8,264.6,326.8L264.6,326.8z"/>
</g>
<g>
	<path d="M154.8,387.5c-0.3,0-0.5-0.2-0.5-0.5v-86.9c0-0.3,0.2-0.5,0.5-0.5h56.6c0.3,0,0.5,0.2,0.5,0.5V387c0,0.3-0.2,0.5-0.5,0.5
		H154.8z"/>
	<path d="M211.4,300.1V387h-56.6l0-86.9H211.4 M211.4,299.1h-56.6c-0.6,0-1,0.4-1,1l0,86.9c0,0.3,0.1,0.5,0.3,0.7s0.4,0.3,0.7,0.3
		h56.6c0.6,0,1-0.4,1-1v-86.9C212.4,299.6,212,299.1,211.4,299.1L211.4,299.1z"/>
</g>
<g>
	<path class="st0" d="M5.1,304.4c-0.3,0-0.5-0.2-0.5-0.5V4.3c0-0.3,0.2-0.5,0.5-0.5l259.3,0c0.1,0,0.3,0.1,0.4,0.1s0.1,0.2,0.1,0.4
		v299.6c0,0.3-0.2,0.5-0.5,0.5H5.1z M210.4,248.2V60H59l0,188.1H210.4z"/>
	<path class="st0" d="M264.3,4.3v299.6H5.1V4.3L264.3,4.3 M58.5,248.7h152.4V59.5H58.5L58.5,248.7 M264.3,3.3L5.1,3.3
		c-0.6,0-1,0.4-1,1v299.6c0,0.6,0.4,1,1,1h259.3c0.6,0,1-0.4,1-1V4.3c0-0.3-0.1-0.5-0.3-0.7C264.9,3.4,264.6,3.3,264.3,3.3
		L264.3,3.3z M59.5,60.5h150.4v187.1H59.5L59.5,60.5L59.5,60.5z"/>
</g>
</svg>
