<?xml version="1.0" encoding="utf-8"?>
<!-- Generator: Adobe Illustrator 24.2.1, SVG Export Plug-In . SVG Version: 6.00 Build 0)  -->
<svg version="1.1"
	 id="svg12" inkscape:version="0.92.4 5da689c313, 2019-01-14" sodipodi:docname="coin.svg" xmlns:cc="http://creativecommons.org/ns#" xmlns:dc="http://purl.org/dc/elements/1.1/" xmlns:inkscape="http://www.inkscape.org/namespaces/inkscape" xmlns:rdf="http://www.w3.org/1999/02/22-rdf-syntax-ns#" xmlns:sodipodi="http://sodipodi.sourceforge.net/DTD/sodipodi-0.dtd" xmlns:svg="http://www.w3.org/2000/svg"
	 xmlns="http://www.w3.org/2000/svg" xmlns:xlink="http://www.w3.org/1999/xlink" x="0px" y="0px" viewBox="0 0 266.5 394"
	 style="enable-background:new 0 0 266.5 394;" xml:space="preserve">
<style type="text/css">
	.st0{fill:#FF2A35;}
	.st1{fill:none;stroke:#FFFFFF;stroke-width:7.4514;}
</style>
<sodipodi:namedview  bordercolor="#666666" borderopacity="1" gridtolerance="10" guidetolerance="10" id="namedview14" inkscape:current-layer="svg12" inkscape:cx="87.933179" inkscape:cy="295.12911" inkscape:pageopacity="0" inkscape:pageshadow="2" inkscape:window-height="704" inkscape:window-maximized="1" inkscape:window-width="1366" inkscape:window-x="0" inkscape:window-y="27" inkscape:zoom="0.6352939" objecttolerance="10" pagecolor="#ffffff" showgrid="false">
	</sodipodi:namedview>
<g id="g884" transform="translate(0.37229685,1.4479689)">
	<g id="g891" transform="translate(161.55757,35.400282)">
		
			<path id="path876" sodipodi:cx="-106.99239" sodipodi:cy="32.68856" sodipodi:end="2.0943951" sodipodi:open="true" sodipodi:rx="37.10593" sodipodi:ry="56.247883" sodipodi:start="2.1312041" sodipodi:type="arc" d="
			M-62.1,295.3c-48.9-46.5-63.9-144-33.7-218.6S-1.4-21.5,48.1,23.7s65.7,142.2,36.3,217.6S-8.8,342.1-58.8,298.3"/>
		<path id="path874" inkscape:connector-curvature="0" sodipodi:nodetypes="ccccc" d="M-41.1,0.6l35,0.4l1.5,318.7h-40.8L-41.1,0.6z
			"/>
		
			<path id="path849" sodipodi:cx="-122.86734" sodipodi:cy="32.68856" sodipodi:end="2.0943951" sodipodi:open="true" sodipodi:rx="37.10593" sodipodi:ry="56.247883" sodipodi:start="2.1312041" sodipodi:type="arc" class="st0" d="
			M-107.1,295.3c-48.9-46.5-63.9-144-33.7-218.6S-46.4-21.5,3.1,23.7s65.7,142.2,36.3,217.6s-93.2,100.8-143.2,57.1"/>
		<g id="g864" transform="matrix(0.72985535,0,0,0.93756063,-236.75276,6.6369128)">
			<path id="path855" inkscape:connector-curvature="0" class="st1" d="M208,229.3V118.5h79.4V175h-60.6"/>
		</g>
	</g>
</g>
</svg>
